<svg xmlns="http://www.w3.org/2000/svg" viewBox="0 0 24 24" fill="#2496ED" width="36" height="36">
  <path d="M13.983 2.068c-.06-.06-.136-.09-.22-.09-.08 0-.15.03-.21.09-.06.06-.09.13-.09.21v.45c0 .08.03.15.09.21.06.06.13.09.21.09h.99c.08 0 .15-.03.21-.09.06-.06.09-.13.09-.21v-.45c0-.08-.03-.15-.09-.21zm-2.97 0c-.06-.06-.13-.09-.21-.09-.08 0-.15.03-.21.09-.06.06-.09.13-.09.21v.45c0 .08.03.15.09.21.06.06.13.09.21.09h.99c.08 0 .15-.03.21-.09.06-.06.09-.13.09-.21v-.45c0-.08-.03-.15-.09-.21zm5.94 0c-.06-.06-.13-.09-.21-.09-.08 0-.15.03-.21.09-.06.06-.09.13-.09.21v.45c0 .08.03.15.09.21.06.06.13.09.21.09h.99c.08 0 .15-.03.21-.09.06-.06.09-.13.09-.21v-.45c0-.08-.03-.15-.09-.21zM12.013 3.028c-.06-.06-.13-.09-.21-.09-.08 0-.15.03-.21.09-.06.06-.09.13-.09.21v.45c0 .08.03.15.09.21.06.06.13.09.21.09h.99c.08 0 .15-.03.21-.09.06-.06.09-.13.09-.21v-.45c0-.08-.03-.15-.09-.21zm-2.97 0c-.06-.06-.13-.09-.21-.09-.08 0-.15.03-.21.09-.06.06-.09.13-.09.21v.45c0 .08.03.15.09.21.06.06.13.09.21.09h.99c.08 0 .15-.03.21-.09.06-.06.09-.13.09-.21v-.45c0-.08-.03-.15-.09-.21zm5.94 0c-.06-.06-.13-.09-.21-.09-.08 0-.15.03-.21.09-.06.06-.09.13-.09.21v.45c0 .08.03.15.09.21.06.06.13.09.21.09h.99c.08 0 .15-.03.21-.09.06-.06.09-.13.09-.21v-.45c0-.08-.03-.15-.09-.21zM9.043 3.988c-.06-.06-.13-.09-.21-.09-.08 0-.15.03-.21.09-.06.06-.09.13-.09.21v.45c0 .08.03.15.09.21.06.06.13.09.21.09h.99c.08 0 .15-.03.21-.09.06-.06.09-.13.09-.21v-.45c0-.08-.03-.15-.09-.21zm2.97 0c-.06-.06-.13-.09-.21-.09-.08 0-.15.03-.21.09-.06.06-.09.13-.09.21v.45c0 .08.03.15.09.21.06.06.13.09.21.09h.99c.08 0 .15-.03.21-.09.06-.06.09-.13.09-.21v-.45c0-.08-.03-.15-.09-.21zm-5.94 0c-.06-.06-.13-.09-.21-.09-.08 0-.15.03-.21.09-.06.06-.09.13-.09.21v.45c0 .08.03.15.09.21.06.06.13.09.21.09h.99c.08 0 .15-.03.21-.09.06-.06.09-.13.09-.21v-.45c0-.08-.03-.15-.09-.21zM12.013 4.948c-.06-.06-.13-.09-.21-.09-.08 0-.15.03-.21.09-.06.06-.09.13-.09.21v.45c0 .08.03.15.09.21.06.06.13.09.21.09h.99c.08 0 .15-.03.21-.09.06-.06.09-.13.09-.21v-.45c0-.08-.03-.15-.09-.21zm-2.97 0c-.06-.06-.13-.09-.21-.09-.08 0-.15.03-.21.09-.06.06-.09.13-.09.21v.45c0 .08.03.15.09.21.06.06.13.09.21.09h.99c.08 0 .15-.03.21-.09.06-.06.09-.13.09-.21v-.45c0-.08-.03-.15-.09-.21zm5.94 0c-.06-.06-.13-.09-.21-.09-.08 0-.15.03-.21.09-.06.06-.09.13-.09.21v.45c0 .08.03.15.09.21.06.06.13.09.21.09h.99c.08 0 .15-.03.21-.09.06-.06.09-.13.09-.21v-.45c0-.08-.03-.15-.09-.21zM9.043 5.908c-.06-.06-.13-.09-.21-.09-.08 0-.15.03-.21.09-.06.06-.09.13-.09.21v.45c0 .08.03.15.09.21.06.06.13.09.21.09h.99c.08 0 .15-.03.21-.09.06-.06.09-.13.09-.21v-.45c0-.08-.03-.15-.09-.21zm2.97 0c-.06-.06-.13-.09-.21-.09-.08 0-.15.03-.21.09-.06.06-.09.13-.09.21v.45c0 .08.03.15.09.21.06.06.13.09.21.09h.99c.08 0 .15-.03.21-.09.06-.06.09-.13.09-.21v-.45c0-.08-.03-.15-.09-.21zm-5.94 0c-.06-.06-.13-.09-.21-.09-.08 0-.15.03-.21.09-.06.06-.09.13-.09.21v.45c0 .08.03.15.09.21.06.06.13.09.21.09h.99c.08 0 .15-.03.21-.09.06-.06.09-.13.09-.21v-.45c0-.08-.03-.15-.09-.21z"/>
  <path d="M22.5 9.5c0-.8-.2-1.5-.6-2.1-.4-.6-1-.9-1.8-1-.8-.1-1.7-.1-2.7-.1h-1.5v4.2h1.5c.5 0 .9-.1 1.2-.2.3-.1.5-.3.7-.5.2-.2.3-.5.3-.8zm-2.7 0c0 .2-.1.4-.2.5-.1.1-.3.2-.5.2h-.5v-1.4h.5c.2 0 .4.1.5.2.1.1.2.3.2.5z"/>
  <path d="M18.5 5.4h-1.5v4.2h1.5c1 0 1.8-.1 2.4-.4.6-.3 1.1-.7 1.4-1.2.3-.5.5-1.1.5-1.7 0-.6-.2-1.2-.5-1.7-.3-.5-.8-.9-1.4-1.2-.6-.3-1.4-.4-2.4-.4h-1.5v4.2zm0 6.1h-1.5v4.2h1.5c1 0 1.8-.1 2.4-.4.6-.3 1.1-.7 1.4-1.2.3-.5.5-1.1.5-1.7 0-.6-.2-1.2-.5-1.7-.3-.5-.8-.9-1.4-1.2-.6-.3-1.4-.4-2.4-.4h-1.5v4.2z"/>
</svg>